<svg width="844" height="472" viewBox="0 0 844 472" fill="none" xmlns="http://www.w3.org/2000/svg">
<rect width="844" height="472" fill="#F5F5F5"/>
<path id="Duplex405-2doPiso" d="M329 86.5L352 146L390.5 130.5L422.5 183L426.5 180.5L440.5 215.5L325.5 243L336.5 381.5L295 383.5L302.5 464H270.5C264 469.833 248.9 477.2 240.5 460L212 451.5C209.333 452 203 451.5 199 445.5L184 441C179.833 443.667 170.3 446.4 165.5 436C146.833 433.833 149 429 84 430C81.1667 433.5 73.4 438.4 65 430C59.5 428.833 47.9 426.1 45.5 424.5L41 423L40 425.5C36 424.167 27.8 421.1 27 419.5C26 417.5 26.5 422 12 424.5C9.50002 421 6.1 411.4 10.5 405C5.33333 397.833 -3.59998 378.6 4.00002 355L25.5 279.5C17.1667 275.5 7.3 263.5 34.5 247.5L38.5 234.5C35.1667 230.167 31.6 220.1 44 214.5L49 200C45.6667 190.167 45.2 171.5 70 175.5L124 153.5C125.167 147.167 131.5 136.4 147.5 144L175 133C176 126.333 181.6 115.3 196 124.5L204.5 121.5C205.5 113.833 211.7 101.1 228.5 111.5L239 107.5C239.333 101.167 243.6 90.8 258 100L273.5 94C274.5 87 280.9 75.1 298.5 83.5L307 80C308 74.5 313.1 65.3 325.5 72.5L329 86.5Z" fill="#46471A" fill-opacity="0.63" stroke="#1D0E33" stroke-opacity="0.66" stroke-width="2"/>
<path id="Duplex404-2doPiso" d="M303.5 464C321.667 463.5 358.2 462.1 359 460.5C366.333 463.667 382.7 467.4 389.5 457C408.5 454.667 456.1 446.6 494.5 433C496.667 433.833 501.5 434.3 503.5 429.5C513.167 426.833 538.5 416.1 562.5 394.5C581.167 391.667 626.5 381.5 658.5 363.5C662 362.833 669.3 360.6 670.5 357L625 288.5L553.5 167.5L514.5 188.5L475.5 205.5L467 209L441.5 215L326 242.5L336.5 381L295.5 384L303.5 464Z" fill="#47234D" fill-opacity="0.59" stroke="black" stroke-width="2"/>
<path id="Duplex403-2doPiso" d="M671 357L625.5 288L553 168L514 188.5L484 114.5L479 116L442 25.5C441.833 21.5 444.6 14.7 457 19.5L477 12C480.333 4.83335 490.9 -5.99999 506.5 8.00001L512.5 9C517.5 6.5 528.1 4.8 530.5 18L554 30C562.833 26.1667 581.3 24 584.5 46L618 62.5L760.5 134.5C762.167 135.333 766 137.7 768 140.5H769L809.5 161.5C810.833 162.167 813.7 163.8 814.5 165C820.167 164.333 830.9 166.6 828.5 181L829.5 183C838.167 186.833 851.3 198.7 834.5 215.5C833.5 221.333 829.5 234.9 821.5 242.5L804 258.5C804.667 264 802.5 274.5 788.5 272.5L759.5 297.5L758.5 296L738 311.5C736.5 315.167 731.8 322.3 725 321.5L722.5 323.5C723.167 334.333 717.5 353.8 689.5 345L671 357Z" fill="#B43232" fill-opacity="0.5" stroke="black" stroke-width="2"/>
</svg>
